<svg xmlns="http://www.w3.org/2000/svg" width="889" height="680" viewBox="0 0 889 680">
<rect width="100%" height="100%" fill="white"/>
<style>text{font-family:Arial,Helvetica,DejaVu Sans,sans-serif}</style>
<defs>
<marker id="arrow-dark" markerWidth="8" markerHeight="8" refX="7" refY="4" orient="auto"><path d="M0,0 L8,4 L0,8 z" fill="#3F3F3F"/></marker>
<marker id="arrow-mid" markerWidth="8" markerHeight="8" refX="7" refY="4" orient="auto"><path d="M0,0 L8,4 L0,8 z" fill="#747474"/></marker>
<marker id="arrow-blue" markerWidth="8" markerHeight="8" refX="7" refY="4" orient="auto"><path d="M0,0 L8,4 L0,8 z" fill="#4C72B0"/></marker>
<marker id="arrow-green" markerWidth="8" markerHeight="8" refX="7" refY="4" orient="auto"><path d="M0,0 L8,4 L0,8 z" fill="#4E8F65"/></marker>
<marker id="arrow-orange" markerWidth="8" markerHeight="8" refX="7" refY="4" orient="auto"><path d="M0,0 L8,4 L0,8 z" fill="#C47A3A"/></marker>
<marker id="arrow-purple" markerWidth="8" markerHeight="8" refX="7" refY="4" orient="auto"><path d="M0,0 L8,4 L0,8 z" fill="#86649B"/></marker>
</defs>
<text x="444.0" y="28.0" font-size="24" font-weight="bold" fill="#3F3F3F" text-anchor="middle" dominant-baseline="middle">Specialization tradeoff</text>
<line x1="138.6" y1="85.0" x2="138.6" y2="540.0" stroke="#D9DDE1" stroke-width="1"/>
<text x="138.6" y="564.0" font-size="16" font-weight="normal" fill="#747474" text-anchor="middle" dominant-baseline="middle">0</text>
<line x1="247.5" y1="85.0" x2="247.5" y2="540.0" stroke="#D9DDE1" stroke-width="1"/>
<text x="247.5" y="564.0" font-size="16" font-weight="normal" fill="#747474" text-anchor="middle" dominant-baseline="middle">20</text>
<line x1="356.5" y1="85.0" x2="356.5" y2="540.0" stroke="#D9DDE1" stroke-width="1"/>
<text x="356.5" y="564.0" font-size="16" font-weight="normal" fill="#747474" text-anchor="middle" dominant-baseline="middle">40</text>
<line x1="465.4" y1="85.0" x2="465.4" y2="540.0" stroke="#D9DDE1" stroke-width="1"/>
<text x="465.4" y="564.0" font-size="16" font-weight="normal" fill="#747474" text-anchor="middle" dominant-baseline="middle">60</text>
<line x1="574.4" y1="85.0" x2="574.4" y2="540.0" stroke="#D9DDE1" stroke-width="1"/>
<text x="574.4" y="564.0" font-size="16" font-weight="normal" fill="#747474" text-anchor="middle" dominant-baseline="middle">80</text>
<line x1="683.4" y1="85.0" x2="683.4" y2="540.0" stroke="#D9DDE1" stroke-width="1"/>
<text x="683.4" y="564.0" font-size="16" font-weight="normal" fill="#747474" text-anchor="middle" dominant-baseline="middle">100</text>
<line x1="792.3" y1="85.0" x2="792.3" y2="540.0" stroke="#D9DDE1" stroke-width="1"/>
<text x="792.3" y="564.0" font-size="16" font-weight="normal" fill="#747474" text-anchor="middle" dominant-baseline="middle">120</text>
<line x1="95.0" y1="491.6" x2="825.0" y2="491.6" stroke="#D9DDE1" stroke-width="1"/>
<text x="83.0" y="491.6" font-size="16" font-weight="normal" fill="#747474" text-anchor="end" dominant-baseline="middle">1</text>
<line x1="95.0" y1="394.8" x2="825.0" y2="394.8" stroke="#D9DDE1" stroke-width="1"/>
<text x="83.0" y="394.8" font-size="16" font-weight="normal" fill="#747474" text-anchor="end" dominant-baseline="middle">2</text>
<line x1="95.0" y1="298.0" x2="825.0" y2="298.0" stroke="#D9DDE1" stroke-width="1"/>
<text x="83.0" y="298.0" font-size="16" font-weight="normal" fill="#747474" text-anchor="end" dominant-baseline="middle">3</text>
<line x1="95.0" y1="201.2" x2="825.0" y2="201.2" stroke="#D9DDE1" stroke-width="1"/>
<text x="83.0" y="201.2" font-size="16" font-weight="normal" fill="#747474" text-anchor="end" dominant-baseline="middle">4</text>
<line x1="95.0" y1="104.4" x2="825.0" y2="104.4" stroke="#D9DDE1" stroke-width="1"/>
<text x="83.0" y="104.4" font-size="16" font-weight="normal" fill="#747474" text-anchor="end" dominant-baseline="middle">5</text>
<line x1="95.0" y1="85.0" x2="95.0" y2="540.0" stroke="#3F3F3F" stroke-width="2"/>
<line x1="95.0" y1="540.0" x2="825.0" y2="540.0" stroke="#3F3F3F" stroke-width="2"/>
<text x="30.0" y="312.5" font-size="18" font-weight="bold" fill="#3F3F3F" text-anchor="middle" dominant-baseline="middle" transform="rotate(-90 30.0 312.5)">Cycle-count ratio over B2R</text>
<text x="460.0" y="632.0" font-size="18" font-weight="bold" fill="#3F3F3F" text-anchor="middle" dominant-baseline="middle">Standalone block area (10³ Nangate45 Liberty units)</text>
<circle cx="138.6" cy="491.6" r="13" fill="#4E8F65" stroke="white" stroke-width="2"/>
<text x="156.6" y="467.6" font-size="20" font-weight="bold" fill="#4E8F65" text-anchor="start" dominant-baseline="middle">1.00×</text>
<circle cx="558.6" cy="150.2" r="13" fill="#4C72B0" stroke="white" stroke-width="2"/>
<text x="540.6" y="150.2" font-size="20" font-weight="bold" fill="#4C72B0" text-anchor="end" dominant-baseline="middle">4.53×</text>
<rect x="552.6" y="116.7" width="12" height="12" fill="#4C72B0" stroke="white" stroke-width="1"/>
<text x="571.6" y="122.7" font-size="14" font-weight="bold" fill="#4C72B0" text-anchor="start" dominant-baseline="middle">B</text>
<rect x="552.6" y="158.8" width="12" height="12" fill="#4C72B0" stroke="white" stroke-width="1"/>
<text x="545.6" y="164.8" font-size="14" font-weight="bold" fill="#4C72B0" text-anchor="end" dominant-baseline="middle">M</text>
<rect x="552.6" y="155.7" width="12" height="12" fill="#4C72B0" stroke="white" stroke-width="1"/>
<text x="571.6" y="161.7" font-size="14" font-weight="bold" fill="#4C72B0" text-anchor="start" dominant-baseline="middle">Q</text>
<circle cx="763.5" cy="405.8" r="13" fill="#B75455" stroke="white" stroke-width="2"/>
<text x="745.5" y="405.8" font-size="20" font-weight="bold" fill="#B75455" text-anchor="end" dominant-baseline="middle">1.89×</text>
<rect x="757.5" y="332.9" width="12" height="12" fill="#B75455" stroke="white" stroke-width="1"/>
<text x="776.5" y="338.9" font-size="14" font-weight="bold" fill="#B75455" text-anchor="start" dominant-baseline="middle">B</text>
<rect x="757.5" y="425.5" width="12" height="12" fill="#B75455" stroke="white" stroke-width="1"/>
<text x="750.5" y="431.5" font-size="14" font-weight="bold" fill="#B75455" text-anchor="end" dominant-baseline="middle">M</text>
<rect x="757.5" y="427.0" width="12" height="12" fill="#B75455" stroke="white" stroke-width="1"/>
<text x="776.5" y="433.0" font-size="14" font-weight="bold" fill="#B75455" text-anchor="start" dominant-baseline="middle">Q</text>
<text x="138.6" y="585.2" font-size="16" font-weight="normal" fill="#3F3F3F" text-anchor="middle" dominant-baseline="middle"><tspan x="138.6" dy="0.0">0</tspan><tspan x="138.6" dy="17.9">B2R</tspan></text>
<text x="558.6" y="585.2" font-size="16" font-weight="normal" fill="#3F3F3F" text-anchor="middle" dominant-baseline="middle"><tspan x="558.6" dy="0.0">77.103</tspan><tspan x="558.6" dy="17.9">Proposed</tspan></text>
<text x="763.5" y="585.2" font-size="16" font-weight="normal" fill="#3F3F3F" text-anchor="middle" dominant-baseline="middle"><tspan x="763.5" dy="0.0">114.713</tspan><tspan x="763.5" dy="17.9">Full-Offload</tspan></text>
</svg>
